solid OpenSCAD_Model
  facet normal -0.587781 -0.80902 0
    outer loop
      vertex 24.5 26.2141 0
      vertex 25.1765 25.7226 1.6
      vertex 24.5 26.2141 1.6
    endloop
  endfacet
  facet normal -0.587781 -0.80902 -0
    outer loop
      vertex 25.1765 25.7226 1.6
      vertex 24.5 26.2141 0
      vertex 25.1765 25.7226 0
    endloop
  endfacet
  facet normal 0.587781 0.80902 -0
    outer loop
      vertex 20.5 19.2859 0
      vertex 19.8235 19.7774 1.6
      vertex 20.5 19.2859 1.6
    endloop
  endfacet
  facet normal 0.587781 0.80902 0
    outer loop
      vertex 19.8235 19.7774 1.6
      vertex 20.5 19.2859 0
      vertex 19.8235 19.7774 0
    endloop
  endfacet
  facet normal -0.406726 -0.91355 0
    outer loop
      vertex 23.7361 26.5542 0
      vertex 24.5 26.2141 1.6
      vertex 23.7361 26.5542 1.6
    endloop
  endfacet
  facet normal -0.406726 -0.91355 -0
    outer loop
      vertex 24.5 26.2141 1.6
      vertex 23.7361 26.5542 0
      vertex 24.5 26.2141 0
    endloop
  endfacet
  facet normal -0.994522 0.104523 0
    outer loop
      vertex 26.4126 21.9184 0
      vertex 26.5 22.75 1.6
      vertex 26.5 22.75 0
    endloop
  endfacet
  facet normal -0.994522 0.104523 0
    outer loop
      vertex 26.5 22.75 1.6
      vertex 26.4126 21.9184 0
      vertex 26.4126 21.9184 1.6
    endloop
  endfacet
  facet normal -0.587781 0.80902 0
    outer loop
      vertex 25.1765 19.7774 0
      vertex 24.5 19.2859 1.6
      vertex 25.1765 19.7774 1.6
    endloop
  endfacet
  facet normal -0.587781 0.80902 0
    outer loop
      vertex 24.5 19.2859 1.6
      vertex 25.1765 19.7774 0
      vertex 24.5 19.2859 0
    endloop
  endfacet
  facet normal -0.743145 0.66913 0
    outer loop
      vertex 25.1765 19.7774 0
      vertex 25.7361 20.3989 1.6
      vertex 25.7361 20.3989 0
    endloop
  endfacet
  facet normal -0.743145 0.66913 0
    outer loop
      vertex 25.7361 20.3989 1.6
      vertex 25.1765 19.7774 0
      vertex 25.1765 19.7774 1.6
    endloop
  endfacet
  facet normal -0.866034 -0.499985 0
    outer loop
      vertex 26.1542 24.3769 0
      vertex 25.7361 25.1011 1.6
      vertex 25.7361 25.1011 0
    endloop
  endfacet
  facet normal -0.866034 -0.499985 0
    outer loop
      vertex 25.7361 25.1011 1.6
      vertex 26.1542 24.3769 0
      vertex 26.1542 24.3769 1.6
    endloop
  endfacet
  facet normal 0.743145 -0.66913 0
    outer loop
      vertex 19.2639 25.1011 1.6
      vertex 19.8235 25.7226 0
      vertex 19.8235 25.7226 1.6
    endloop
  endfacet
  facet normal 0.743145 -0.66913 0
    outer loop
      vertex 19.8235 25.7226 0
      vertex 19.2639 25.1011 1.6
      vertex 19.2639 25.1011 0
    endloop
  endfacet
  facet normal -0.743145 -0.66913 0
    outer loop
      vertex 25.7361 25.1011 0
      vertex 25.1765 25.7226 1.6
      vertex 25.1765 25.7226 0
    endloop
  endfacet
  facet normal -0.743145 -0.66913 0
    outer loop
      vertex 25.1765 25.7226 1.6
      vertex 25.7361 25.1011 0
      vertex 25.7361 25.1011 1.6
    endloop
  endfacet
  facet normal -0.994522 -0.104523 0
    outer loop
      vertex 26.5 22.75 0
      vertex 26.4126 23.5816 1.6
      vertex 26.4126 23.5816 0
    endloop
  endfacet
  facet normal -0.994522 -0.104523 0
    outer loop
      vertex 26.4126 23.5816 1.6
      vertex 26.5 22.75 0
      vertex 26.5 22.75 1.6
    endloop
  endfacet
  facet normal 0.743145 0.66913 0
    outer loop
      vertex 19.8235 19.7774 1.6
      vertex 19.2639 20.3989 0
      vertex 19.2639 20.3989 1.6
    endloop
  endfacet
  facet normal 0.743145 0.66913 0
    outer loop
      vertex 19.2639 20.3989 0
      vertex 19.8235 19.7774 1.6
      vertex 19.8235 19.7774 0
    endloop
  endfacet
  facet normal 0.95106 -0.309008 0
    outer loop
      vertex 18.5874 23.5816 1.6
      vertex 18.8458 24.3769 0
      vertex 18.8458 24.3769 1.6
    endloop
  endfacet
  facet normal 0.95106 -0.309008 0
    outer loop
      vertex 18.8458 24.3769 0
      vertex 18.5874 23.5816 1.6
      vertex 18.5874 23.5816 0
    endloop
  endfacet
  facet normal 0.207945 -0.978141 0
    outer loop
      vertex 21.2639 26.5542 0
      vertex 22.0819 26.7281 1.6
      vertex 21.2639 26.5542 1.6
    endloop
  endfacet
  facet normal 0.207945 -0.978141 0
    outer loop
      vertex 22.0819 26.7281 1.6
      vertex 21.2639 26.5542 0
      vertex 22.0819 26.7281 0
    endloop
  endfacet
  facet normal -0.95106 -0.309008 0
    outer loop
      vertex 26.4126 23.5816 0
      vertex 26.1542 24.3769 1.6
      vertex 26.1542 24.3769 0
    endloop
  endfacet
  facet normal -0.95106 -0.309008 0
    outer loop
      vertex 26.1542 24.3769 1.6
      vertex 26.4126 23.5816 0
      vertex 26.4126 23.5816 1.6
    endloop
  endfacet
  facet normal -0.95106 0.309008 0
    outer loop
      vertex 26.1542 21.1231 0
      vertex 26.4126 21.9184 1.6
      vertex 26.4126 21.9184 0
    endloop
  endfacet
  facet normal -0.95106 0.309008 0
    outer loop
      vertex 26.4126 21.9184 1.6
      vertex 26.1542 21.1231 0
      vertex 26.1542 21.1231 1.6
    endloop
  endfacet
  facet normal 0.866034 0.499985 0
    outer loop
      vertex 19.2639 20.3989 1.6
      vertex 18.8458 21.1231 0
      vertex 18.8458 21.1231 1.6
    endloop
  endfacet
  facet normal 0.866034 0.499985 0
    outer loop
      vertex 18.8458 21.1231 0
      vertex 19.2639 20.3989 1.6
      vertex 19.2639 20.3989 0
    endloop
  endfacet
  facet normal 0.406726 -0.91355 0
    outer loop
      vertex 20.5 26.2141 0
      vertex 21.2639 26.5542 1.6
      vertex 20.5 26.2141 1.6
    endloop
  endfacet
  facet normal 0.406726 -0.91355 0
    outer loop
      vertex 21.2639 26.5542 1.6
      vertex 20.5 26.2141 0
      vertex 21.2639 26.5542 0
    endloop
  endfacet
  facet normal 0.994522 -0.104523 0
    outer loop
      vertex 18.5 22.75 1.6
      vertex 18.5874 23.5816 0
      vertex 18.5874 23.5816 1.6
    endloop
  endfacet
  facet normal 0.994522 -0.104523 0
    outer loop
      vertex 18.5874 23.5816 0
      vertex 18.5 22.75 1.6
      vertex 18.5 22.75 0
    endloop
  endfacet
  facet normal 0.866034 -0.499985 0
    outer loop
      vertex 18.8458 24.3769 1.6
      vertex 19.2639 25.1011 0
      vertex 19.2639 25.1011 1.6
    endloop
  endfacet
  facet normal 0.866034 -0.499985 0
    outer loop
      vertex 19.2639 25.1011 0
      vertex 18.8458 24.3769 1.6
      vertex 18.8458 24.3769 0
    endloop
  endfacet
  facet normal -0.866034 0.499985 0
    outer loop
      vertex 25.7361 20.3989 0
      vertex 26.1542 21.1231 1.6
      vertex 26.1542 21.1231 0
    endloop
  endfacet
  facet normal -0.866034 0.499985 0
    outer loop
      vertex 26.1542 21.1231 1.6
      vertex 25.7361 20.3989 0
      vertex 25.7361 20.3989 1.6
    endloop
  endfacet
  facet normal 0 -1 0
    outer loop
      vertex 22.0819 26.7281 0
      vertex 22.9181 26.7281 1.6
      vertex 22.0819 26.7281 1.6
    endloop
  endfacet
  facet normal 0 -1 -0
    outer loop
      vertex 22.9181 26.7281 1.6
      vertex 22.0819 26.7281 0
      vertex 22.9181 26.7281 0
    endloop
  endfacet
  facet normal -0.207945 -0.978141 0
    outer loop
      vertex 22.9181 26.7281 0
      vertex 23.7361 26.5542 1.6
      vertex 22.9181 26.7281 1.6
    endloop
  endfacet
  facet normal -0.207945 -0.978141 -0
    outer loop
      vertex 23.7361 26.5542 1.6
      vertex 22.9181 26.7281 0
      vertex 23.7361 26.5542 0
    endloop
  endfacet
  facet normal 0.95106 0.309008 0
    outer loop
      vertex 18.8458 21.1231 1.6
      vertex 18.5874 21.9184 0
      vertex 18.5874 21.9184 1.6
    endloop
  endfacet
  facet normal 0.95106 0.309008 0
    outer loop
      vertex 18.5874 21.9184 0
      vertex 18.8458 21.1231 1.6
      vertex 18.8458 21.1231 0
    endloop
  endfacet
  facet normal 0.587781 -0.80902 0
    outer loop
      vertex 19.8235 25.7226 0
      vertex 20.5 26.2141 1.6
      vertex 19.8235 25.7226 1.6
    endloop
  endfacet
  facet normal 0.587781 -0.80902 0
    outer loop
      vertex 20.5 26.2141 1.6
      vertex 19.8235 25.7226 0
      vertex 20.5 26.2141 0
    endloop
  endfacet
  facet normal 0.994522 0.104523 0
    outer loop
      vertex 18.5874 21.9184 1.6
      vertex 18.5 22.75 0
      vertex 18.5 22.75 1.6
    endloop
  endfacet
  facet normal 0.994522 0.104523 0
    outer loop
      vertex 18.5 22.75 0
      vertex 18.5874 21.9184 1.6
      vertex 18.5874 21.9184 0
    endloop
  endfacet
  facet normal -0.156463 0.987684 0
    outer loop
      vertex 23.118 14.8479 0
      vertex 22.5 14.75 1.6
      vertex 23.118 14.8479 1.6
    endloop
  endfacet
  facet normal -0.156463 0.987684 0
    outer loop
      vertex 22.5 14.75 1.6
      vertex 23.118 14.8479 0
      vertex 22.5 14.75 0
    endloop
  endfacet
  facet normal -0.891014 0.453976 0
    outer loop
      vertex 24.118 15.5744 0
      vertex 24.4021 16.132 1.6
      vertex 24.4021 16.132 0
    endloop
  endfacet
  facet normal -0.891014 0.453976 0
    outer loop
      vertex 24.4021 16.132 1.6
      vertex 24.118 15.5744 0
      vertex 24.118 15.5744 1.6
    endloop
  endfacet
  facet normal -0.707107 0.707107 0
    outer loop
      vertex 23.6756 15.132 0
      vertex 24.118 15.5744 1.6
      vertex 24.118 15.5744 0
    endloop
  endfacet
  facet normal -0.707107 0.707107 0
    outer loop
      vertex 24.118 15.5744 1.6
      vertex 23.6756 15.132 0
      vertex 23.6756 15.132 1.6
    endloop
  endfacet
  facet normal -0.453976 0.891014 0
    outer loop
      vertex 23.6756 15.132 0
      vertex 23.118 14.8479 1.6
      vertex 23.6756 15.132 1.6
    endloop
  endfacet
  facet normal -0.453976 0.891014 0
    outer loop
      vertex 23.118 14.8479 1.6
      vertex 23.6756 15.132 0
      vertex 23.118 14.8479 0
    endloop
  endfacet
  facet normal 0.156463 0.987684 -0
    outer loop
      vertex 22.5 14.75 0
      vertex 21.882 14.8479 1.6
      vertex 22.5 14.75 1.6
    endloop
  endfacet
  facet normal 0.156463 0.987684 0
    outer loop
      vertex 21.882 14.8479 1.6
      vertex 22.5 14.75 0
      vertex 21.882 14.8479 0
    endloop
  endfacet
  facet normal 0.707107 0.707107 0
    outer loop
      vertex 21.3244 15.132 1.6
      vertex 20.882 15.5744 0
      vertex 20.882 15.5744 1.6
    endloop
  endfacet
  facet normal 0.707107 0.707107 0
    outer loop
      vertex 20.882 15.5744 0
      vertex 21.3244 15.132 1.6
      vertex 21.3244 15.132 0
    endloop
  endfacet
  facet normal 0.987684 0.156463 0
    outer loop
      vertex 20.5979 16.132 1.6
      vertex 20.5 16.75 0
      vertex 20.5 16.75 1.6
    endloop
  endfacet
  facet normal 0.987684 0.156463 0
    outer loop
      vertex 20.5 16.75 0
      vertex 20.5979 16.132 1.6
      vertex 20.5979 16.132 0
    endloop
  endfacet
  facet normal 0.891014 0.453976 0
    outer loop
      vertex 20.882 15.5744 1.6
      vertex 20.5979 16.132 0
      vertex 20.5979 16.132 1.6
    endloop
  endfacet
  facet normal 0.891014 0.453976 0
    outer loop
      vertex 20.5979 16.132 0
      vertex 20.882 15.5744 1.6
      vertex 20.882 15.5744 0
    endloop
  endfacet
  facet normal 0.453976 0.891014 -0
    outer loop
      vertex 21.882 14.8479 0
      vertex 21.3244 15.132 1.6
      vertex 21.882 14.8479 1.6
    endloop
  endfacet
  facet normal 0.453976 0.891014 0
    outer loop
      vertex 21.3244 15.132 1.6
      vertex 21.882 14.8479 0
      vertex 21.3244 15.132 0
    endloop
  endfacet
  facet normal -0.987684 0.156463 0
    outer loop
      vertex 24.4021 16.132 0
      vertex 24.5 16.75 1.6
      vertex 24.5 16.75 0
    endloop
  endfacet
  facet normal -0.987684 0.156463 0
    outer loop
      vertex 24.5 16.75 1.6
      vertex 24.4021 16.132 0
      vertex 24.4021 16.132 1.6
    endloop
  endfacet
  facet normal -1 0 0
    outer loop
      vertex 24.5 16.75 0
      vertex 24.5 19.2859 1.6
      vertex 24.5 19.2859 0
    endloop
  endfacet
  facet normal -1 -0 0
    outer loop
      vertex 24.5 19.2859 1.6
      vertex 24.5 16.75 0
      vertex 24.5 16.75 1.6
    endloop
  endfacet
  facet normal 1 -0 0
    outer loop
      vertex 20.5 16.75 1.6
      vertex 20.5 19.2859 0
      vertex 20.5 19.2859 1.6
    endloop
  endfacet
  facet normal 1 0 0
    outer loop
      vertex 20.5 19.2859 0
      vertex 20.5 16.75 1.6
      vertex 20.5 16.75 0
    endloop
  endfacet
  facet normal 0.453951 -0.891027 0
    outer loop
      vertex 43.618 0.0978861 0
      vertex 44.1756 0.381966 1.6
      vertex 43.618 0.0978861 1.6
    endloop
  endfacet
  facet normal 0.453951 -0.891027 0
    outer loop
      vertex 44.1756 0.381966 1.6
      vertex 43.618 0.0978861 0
      vertex 44.1756 0.381966 0
    endloop
  endfacet
  facet normal 1 -0 0
    outer loop
      vertex 45 2 1.6
      vertex 45 33 0
      vertex 45 33 1.6
    endloop
  endfacet
  facet normal 1 0 0
    outer loop
      vertex 45 33 0
      vertex 45 2 1.6
      vertex 45 2 0
    endloop
  endfacet
  facet normal -0.707107 -0.707107 0
    outer loop
      vertex 0.824429 0.381966 0
      vertex 0.381966 0.824429 1.6
      vertex 0.381966 0.824429 0
    endloop
  endfacet
  facet normal -0.707107 -0.707107 0
    outer loop
      vertex 0.381966 0.824429 1.6
      vertex 0.824429 0.381966 0
      vertex 0.824429 0.381966 1.6
    endloop
  endfacet
  facet normal 0.453976 0.891014 -0
    outer loop
      vertex 44.1756 34.618 0
      vertex 43.618 34.9021 1.6
      vertex 44.1756 34.618 1.6
    endloop
  endfacet
  facet normal 0.453976 0.891014 0
    outer loop
      vertex 43.618 34.9021 1.6
      vertex 44.1756 34.618 0
      vertex 43.618 34.9021 0
    endloop
  endfacet
  facet normal -0.453989 -0.891007 0
    outer loop
      vertex 0.824429 0.381966 0
      vertex 1.38197 0.0978861 1.6
      vertex 0.824429 0.381966 1.6
    endloop
  endfacet
  facet normal -0.453989 -0.891007 -0
    outer loop
      vertex 1.38197 0.0978861 1.6
      vertex 0.824429 0.381966 0
      vertex 1.38197 0.0978861 0
    endloop
  endfacet
  facet normal 0 1 -0
    outer loop
      vertex 43 35 0
      vertex 2 35 1.6
      vertex 43 35 1.6
    endloop
  endfacet
  facet normal 0 1 0
    outer loop
      vertex 2 35 1.6
      vertex 43 35 0
      vertex 2 35 0
    endloop
  endfacet
  facet normal -0.156456 0.987685 0
    outer loop
      vertex 2 35 0
      vertex 1.38197 34.9021 1.6
      vertex 2 35 1.6
    endloop
  endfacet
  facet normal -0.156456 0.987685 0
    outer loop
      vertex 1.38197 34.9021 1.6
      vertex 2 35 0
      vertex 1.38197 34.9021 0
    endloop
  endfacet
  facet normal -0.891027 0.453951 0
    outer loop
      vertex 0.0978861 33.618 0
      vertex 0.381966 34.1756 1.6
      vertex 0.381966 34.1756 0
    endloop
  endfacet
  facet normal -0.891027 0.453951 0
    outer loop
      vertex 0.381966 34.1756 1.6
      vertex 0.0978861 33.618 0
      vertex 0.0978861 33.618 1.6
    endloop
  endfacet
  facet normal 0.890994 -0.454014 0
    outer loop
      vertex 44.618 0.824429 1.6
      vertex 44.9021 1.38197 0
      vertex 44.9021 1.38197 1.6
    endloop
  endfacet
  facet normal 0.890994 -0.454014 0
    outer loop
      vertex 44.9021 1.38197 0
      vertex 44.618 0.824429 1.6
      vertex 44.618 0.824429 0
    endloop
  endfacet
  facet normal -0.454014 0.890994 0
    outer loop
      vertex 1.38197 34.9021 0
      vertex 0.824429 34.618 1.6
      vertex 1.38197 34.9021 1.6
    endloop
  endfacet
  facet normal -0.454014 0.890994 0
    outer loop
      vertex 0.824429 34.618 1.6
      vertex 1.38197 34.9021 0
      vertex 0.824429 34.618 0
    endloop
  endfacet
  facet normal 0.987685 -0.156456 0
    outer loop
      vertex 44.9021 1.38197 1.6
      vertex 45 2 0
      vertex 45 2 1.6
    endloop
  endfacet
  facet normal 0.987685 -0.156456 0
    outer loop
      vertex 45 2 0
      vertex 44.9021 1.38197 1.6
      vertex 44.9021 1.38197 0
    endloop
  endfacet
  facet normal 0.891014 0.453976 0
    outer loop
      vertex 44.9021 33.618 1.6
      vertex 44.618 34.1756 0
      vertex 44.618 34.1756 1.6
    endloop
  endfacet
  facet normal 0.891014 0.453976 0
    outer loop
      vertex 44.618 34.1756 0
      vertex 44.9021 33.618 1.6
      vertex 44.9021 33.618 0
    endloop
  endfacet
  facet normal 0 0 -1
    outer loop
      vertex 43 0 0
      vertex 45 2 0
      vertex 44.9021 1.38197 0
    endloop
  endfacet
  facet normal 0 0 -1
    outer loop
      vertex 45 2 0
      vertex 26.4126 21.9184 0
      vertex 45 33 0
    endloop
  endfacet
  facet normal 0 0 -1
    outer loop
      vertex 43 0 0
      vertex 44.9021 1.38197 0
      vertex 44.618 0.824429 0
    endloop
  endfacet
  facet normal 0 -0 -1
    outer loop
      vertex 26.5 22.75 0
      vertex 45 33 0
      vertex 26.4126 21.9184 0
    endloop
  endfacet
  facet normal 0 0 -1
    outer loop
      vertex 43 0 0
      vertex 44.618 0.824429 0
      vertex 44.1756 0.381966 0
    endloop
  endfacet
  facet normal 0 0 -1
    outer loop
      vertex 26.4126 23.5816 0
      vertex 45 33 0
      vertex 26.5 22.75 0
    endloop
  endfacet
  facet normal 0 0 -1
    outer loop
      vertex 43 0 0
      vertex 44.1756 0.381966 0
      vertex 43.618 0.0978861 0
    endloop
  endfacet
  facet normal 0 -0 -1
    outer loop
      vertex 43 35 0
      vertex 45 33 0
      vertex 26.4126 23.5816 0
    endloop
  endfacet
  facet normal 0 0 -1
    outer loop
      vertex 24.118 15.5744 0
      vertex 45 2 0
      vertex 43 0 0
    endloop
  endfacet
  facet normal 0 0 -1
    outer loop
      vertex 44.9021 33.618 0
      vertex 43 35 0
      vertex 44.618 34.1756 0
    endloop
  endfacet
  facet normal 0 0 -1
    outer loop
      vertex 44.1756 34.618 0
      vertex 43 35 0
      vertex 43.618 34.9021 0
    endloop
  endfacet
  facet normal 0 0 -1
    outer loop
      vertex 44.618 34.1756 0
      vertex 43 35 0
      vertex 44.1756 34.618 0
    endloop
  endfacet
  facet normal 0 0 -1
    outer loop
      vertex 45 2 0
      vertex 26.1542 21.1231 0
      vertex 26.4126 21.9184 0
    endloop
  endfacet
  facet normal 0 0 -1
    outer loop
      vertex 45 2 0
      vertex 24.4021 16.132 0
      vertex 26.1542 21.1231 0
    endloop
  endfacet
  facet normal 0 -0 -1
    outer loop
      vertex 24.5 16.75 0
      vertex 26.1542 21.1231 0
      vertex 24.4021 16.132 0
    endloop
  endfacet
  facet normal 0 0 -1
    outer loop
      vertex 25.7361 20.3989 0
      vertex 24.5 16.75 0
      vertex 25.1765 19.7774 0
    endloop
  endfacet
  facet normal 0 0 -1
    outer loop
      vertex 26.1542 21.1231 0
      vertex 24.5 16.75 0
      vertex 25.7361 20.3989 0
    endloop
  endfacet
  facet normal 0 0 -1
    outer loop
      vertex 45 2 0
      vertex 24.118 15.5744 0
      vertex 24.4021 16.132 0
    endloop
  endfacet
  facet normal 0 0 -1
    outer loop
      vertex 43 0 0
      vertex 23.6756 15.132 0
      vertex 24.118 15.5744 0
    endloop
  endfacet
  facet normal 0 0 -1
    outer loop
      vertex 43 0 0
      vertex 23.118 14.8479 0
      vertex 23.6756 15.132 0
    endloop
  endfacet
  facet normal 0 0 -1
    outer loop
      vertex 43 0 0
      vertex 22.5 14.75 0
      vertex 23.118 14.8479 0
    endloop
  endfacet
  facet normal 0 0 -1
    outer loop
      vertex 2 0 0
      vertex 22.5 14.75 0
      vertex 43 0 0
    endloop
  endfacet
  facet normal -0 0 -1
    outer loop
      vertex 22.5 14.75 0
      vertex 2 0 0
      vertex 21.882 14.8479 0
    endloop
  endfacet
  facet normal 0 0 -1
    outer loop
      vertex 20.5 16.75 0
      vertex 19.8235 19.7774 0
      vertex 20.5 19.2859 0
    endloop
  endfacet
  facet normal 0 0 -1
    outer loop
      vertex 18.8458 21.1231 0
      vertex 20.5 16.75 0
      vertex 20.5979 16.132 0
    endloop
  endfacet
  facet normal 0 0 -1
    outer loop
      vertex 20.5 16.75 0
      vertex 19.2639 20.3989 0
      vertex 19.8235 19.7774 0
    endloop
  endfacet
  facet normal 0 0 -1
    outer loop
      vertex 20.5 16.75 0
      vertex 18.8458 21.1231 0
      vertex 19.2639 20.3989 0
    endloop
  endfacet
  facet normal -0 0 -1
    outer loop
      vertex 18.8458 21.1231 0
      vertex 0 2 0
      vertex 18.5874 21.9184 0
    endloop
  endfacet
  facet normal -0 0 -1
    outer loop
      vertex 20.5979 16.132 0
      vertex 0 2 0
      vertex 18.8458 21.1231 0
    endloop
  endfacet
  facet normal -0 0 -1
    outer loop
      vertex 20.882 15.5744 0
      vertex 0 2 0
      vertex 20.5979 16.132 0
    endloop
  endfacet
  facet normal 0 0 -1
    outer loop
      vertex 0 2 0
      vertex 20.882 15.5744 0
      vertex 2 0 0
    endloop
  endfacet
  facet normal -0 0 -1
    outer loop
      vertex 21.3244 15.132 0
      vertex 2 0 0
      vertex 20.882 15.5744 0
    endloop
  endfacet
  facet normal -0 0 -1
    outer loop
      vertex 21.882 14.8479 0
      vertex 2 0 0
      vertex 21.3244 15.132 0
    endloop
  endfacet
  facet normal 0 0 -1
    outer loop
      vertex 45 33 0
      vertex 43 35 0
      vertex 44.9021 33.618 0
    endloop
  endfacet
  facet normal 0 0 -1
    outer loop
      vertex 26.1542 24.3769 0
      vertex 43 35 0
      vertex 26.4126 23.5816 0
    endloop
  endfacet
  facet normal 0 0 -1
    outer loop
      vertex 25.7361 25.1011 0
      vertex 43 35 0
      vertex 26.1542 24.3769 0
    endloop
  endfacet
  facet normal 0 0 -1
    outer loop
      vertex 25.1765 25.7226 0
      vertex 43 35 0
      vertex 25.7361 25.1011 0
    endloop
  endfacet
  facet normal 0 0 -1
    outer loop
      vertex 24.5 26.2141 0
      vertex 43 35 0
      vertex 25.1765 25.7226 0
    endloop
  endfacet
  facet normal 0 0 -1
    outer loop
      vertex 23.7361 26.5542 0
      vertex 43 35 0
      vertex 24.5 26.2141 0
    endloop
  endfacet
  facet normal 0 0 -1
    outer loop
      vertex 22.9181 26.7281 0
      vertex 43 35 0
      vertex 23.7361 26.5542 0
    endloop
  endfacet
  facet normal 0 0 -1
    outer loop
      vertex 22.0819 26.7281 0
      vertex 43 35 0
      vertex 22.9181 26.7281 0
    endloop
  endfacet
  facet normal 0 0 -1
    outer loop
      vertex 2 35 0
      vertex 22.0819 26.7281 0
      vertex 21.2639 26.5542 0
    endloop
  endfacet
  facet normal 0 0 -1
    outer loop
      vertex 0 33 0
      vertex 18.5874 21.9184 0
      vertex 0 2 0
    endloop
  endfacet
  facet normal 0 0 -1
    outer loop
      vertex 18.5874 21.9184 0
      vertex 0 33 0
      vertex 18.5 22.75 0
    endloop
  endfacet
  facet normal 0 0 -1
    outer loop
      vertex 18.5 22.75 0
      vertex 0 33 0
      vertex 18.5874 23.5816 0
    endloop
  endfacet
  facet normal 0 0 -1
    outer loop
      vertex 22.0819 26.7281 0
      vertex 2 35 0
      vertex 43 35 0
    endloop
  endfacet
  facet normal 0 0 -1
    outer loop
      vertex 20.5 26.2141 0
      vertex 2 35 0
      vertex 21.2639 26.5542 0
    endloop
  endfacet
  facet normal 0 0 -1
    outer loop
      vertex 19.8235 25.7226 0
      vertex 2 35 0
      vertex 20.5 26.2141 0
    endloop
  endfacet
  facet normal 0 0 -1
    outer loop
      vertex 19.2639 25.1011 0
      vertex 2 35 0
      vertex 19.8235 25.7226 0
    endloop
  endfacet
  facet normal 0 -0 -1
    outer loop
      vertex 2 35 0
      vertex 18.5874 23.5816 0
      vertex 0 33 0
    endloop
  endfacet
  facet normal 0 0 -1
    outer loop
      vertex 0 2 0
      vertex 2 0 0
      vertex 1.38197 0.0978861 0
    endloop
  endfacet
  facet normal 0 0 -1
    outer loop
      vertex 18.5874 23.5816 0
      vertex 2 35 0
      vertex 18.8458 24.3769 0
    endloop
  endfacet
  facet normal 0 0 -1
    outer loop
      vertex 0 2 0
      vertex 1.38197 0.0978861 0
      vertex 0.824429 0.381966 0
    endloop
  endfacet
  facet normal 0 0 -1
    outer loop
      vertex 18.8458 24.3769 0
      vertex 2 35 0
      vertex 19.2639 25.1011 0
    endloop
  endfacet
  facet normal 0 0 -1
    outer loop
      vertex 0 2 0
      vertex 0.824429 0.381966 0
      vertex 0.381966 0.824429 0
    endloop
  endfacet
  facet normal 0 0 -1
    outer loop
      vertex 2 35 0
      vertex 0 33 0
      vertex 1.38197 34.9021 0
    endloop
  endfacet
  facet normal 0 0 -1
    outer loop
      vertex 0 2 0
      vertex 0.381966 0.824429 0
      vertex 0.0978861 1.38197 0
    endloop
  endfacet
  facet normal 0 0 -1
    outer loop
      vertex 1.38197 34.9021 0
      vertex 0 33 0
      vertex 0.824429 34.618 0
    endloop
  endfacet
  facet normal 0 0 -1
    outer loop
      vertex 0.824429 34.618 0
      vertex 0 33 0
      vertex 0.381966 34.1756 0
    endloop
  endfacet
  facet normal 0 0 -1
    outer loop
      vertex 0.381966 34.1756 0
      vertex 0 33 0
      vertex 0.0978861 33.618 0
    endloop
  endfacet
  facet normal 0 0 -1
    outer loop
      vertex 25.1765 19.7774 0
      vertex 24.5 16.75 0
      vertex 24.5 19.2859 0
    endloop
  endfacet
  facet normal -1 0 0
    outer loop
      vertex 0 2 0
      vertex 0 33 1.6
      vertex 0 33 0
    endloop
  endfacet
  facet normal -1 -0 0
    outer loop
      vertex 0 33 1.6
      vertex 0 2 0
      vertex 0 2 1.6
    endloop
  endfacet
  facet normal 0.156463 0.987684 -0
    outer loop
      vertex 43.618 34.9021 0
      vertex 43 35 1.6
      vertex 43.618 34.9021 1.6
    endloop
  endfacet
  facet normal 0.156463 0.987684 0
    outer loop
      vertex 43 35 1.6
      vertex 43.618 34.9021 0
      vertex 43 35 0
    endloop
  endfacet
  facet normal -0.156434 -0.987688 0
    outer loop
      vertex 1.38197 0.0978861 0
      vertex 2 0 1.6
      vertex 1.38197 0.0978861 1.6
    endloop
  endfacet
  facet normal -0.156434 -0.987688 -0
    outer loop
      vertex 2 0 1.6
      vertex 1.38197 0.0978861 0
      vertex 2 0 0
    endloop
  endfacet
  facet normal 0 -1 0
    outer loop
      vertex 2 0 0
      vertex 43 0 1.6
      vertex 2 0 1.6
    endloop
  endfacet
  facet normal 0 -1 -0
    outer loop
      vertex 43 0 1.6
      vertex 2 0 0
      vertex 43 0 0
    endloop
  endfacet
  facet normal 0.156442 -0.987687 0
    outer loop
      vertex 43 0 0
      vertex 43.618 0.0978861 1.6
      vertex 43 0 1.6
    endloop
  endfacet
  facet normal 0.156442 -0.987687 0
    outer loop
      vertex 43.618 0.0978861 1.6
      vertex 43 0 0
      vertex 43.618 0.0978861 0
    endloop
  endfacet
  facet normal -0.707056 0.707157 0
    outer loop
      vertex 0.381966 34.1756 0
      vertex 0.824429 34.618 1.6
      vertex 0.824429 34.618 0
    endloop
  endfacet
  facet normal -0.707056 0.707157 0
    outer loop
      vertex 0.824429 34.618 1.6
      vertex 0.381966 34.1756 0
      vertex 0.381966 34.1756 1.6
    endloop
  endfacet
  facet normal 0.707107 0.707107 0
    outer loop
      vertex 44.618 34.1756 1.6
      vertex 44.1756 34.618 0
      vertex 44.1756 34.618 1.6
    endloop
  endfacet
  facet normal 0.707107 0.707107 0
    outer loop
      vertex 44.1756 34.618 0
      vertex 44.618 34.1756 1.6
      vertex 44.618 34.1756 0
    endloop
  endfacet
  facet normal 0 0 1
    outer loop
      vertex 20.5 19.2859 1.6
      vertex 19.8235 19.7774 1.6
      vertex 20.5 16.75 1.6
    endloop
  endfacet
  facet normal 0 0 1
    outer loop
      vertex 26.4126 21.9184 1.6
      vertex 42.1 32.1 1.6
      vertex 26.5 22.75 1.6
    endloop
  endfacet
  facet normal 0 0 1
    outer loop
      vertex 42.1 32.1 1.6
      vertex 26.4126 23.5816 1.6
      vertex 26.5 22.75 1.6
    endloop
  endfacet
  facet normal 0 0 1
    outer loop
      vertex 42.1 32.1 1.6
      vertex 26.1542 24.3769 1.6
      vertex 26.4126 23.5816 1.6
    endloop
  endfacet
  facet normal 0 0 1
    outer loop
      vertex 42.1 32.1 1.6
      vertex 25.7361 25.1011 1.6
      vertex 26.1542 24.3769 1.6
    endloop
  endfacet
  facet normal 0 0 1
    outer loop
      vertex 42.1 32.1 1.6
      vertex 25.1765 25.7226 1.6
      vertex 25.7361 25.1011 1.6
    endloop
  endfacet
  facet normal 0 0 1
    outer loop
      vertex 42.1 32.1 1.6
      vertex 24.5 26.2141 1.6
      vertex 25.1765 25.7226 1.6
    endloop
  endfacet
  facet normal 0 0 1
    outer loop
      vertex 42.1 32.1 1.6
      vertex 23.7361 26.5542 1.6
      vertex 24.5 26.2141 1.6
    endloop
  endfacet
  facet normal 0 0 1
    outer loop
      vertex 42.1 32.1 1.6
      vertex 22.9181 26.7281 1.6
      vertex 23.7361 26.5542 1.6
    endloop
  endfacet
  facet normal 0 0 1
    outer loop
      vertex 42.1 32.1 1.6
      vertex 22.0819 26.7281 1.6
      vertex 22.9181 26.7281 1.6
    endloop
  endfacet
  facet normal -0 0 1
    outer loop
      vertex 2.9 32.1 1.6
      vertex 22.0819 26.7281 1.6
      vertex 42.1 32.1 1.6
    endloop
  endfacet
  facet normal 0 0 1
    outer loop
      vertex 18.5874 23.5816 1.6
      vertex 2.9 32.1 1.6
      vertex 18.5 22.75 1.6
    endloop
  endfacet
  facet normal 0 0 1
    outer loop
      vertex 18.8458 24.3769 1.6
      vertex 2.9 32.1 1.6
      vertex 18.5874 23.5816 1.6
    endloop
  endfacet
  facet normal 0 0 1
    outer loop
      vertex 19.2639 25.1011 1.6
      vertex 2.9 32.1 1.6
      vertex 18.8458 24.3769 1.6
    endloop
  endfacet
  facet normal 0 0 1
    outer loop
      vertex 19.8235 25.7226 1.6
      vertex 2.9 32.1 1.6
      vertex 19.2639 25.1011 1.6
    endloop
  endfacet
  facet normal 0 0 1
    outer loop
      vertex 20.5 26.2141 1.6
      vertex 2.9 32.1 1.6
      vertex 19.8235 25.7226 1.6
    endloop
  endfacet
  facet normal 0 0 1
    outer loop
      vertex 21.2639 26.5542 1.6
      vertex 2.9 32.1 1.6
      vertex 20.5 26.2141 1.6
    endloop
  endfacet
  facet normal 0 0 1
    outer loop
      vertex 22.0819 26.7281 1.6
      vertex 2.9 32.1 1.6
      vertex 21.2639 26.5542 1.6
    endloop
  endfacet
  facet normal 0 0 1
    outer loop
      vertex 42.1 32.1 1.6
      vertex 26.4126 21.9184 1.6
      vertex 42.1 2.9 1.6
    endloop
  endfacet
  facet normal -0 0 1
    outer loop
      vertex 26.1542 21.1231 1.6
      vertex 42.1 2.9 1.6
      vertex 26.4126 21.9184 1.6
    endloop
  endfacet
  facet normal 0 0 1
    outer loop
      vertex 24.5 16.75 1.6
      vertex 26.1542 21.1231 1.6
      vertex 25.7361 20.3989 1.6
    endloop
  endfacet
  facet normal 0 0 1
    outer loop
      vertex 24.5 16.75 1.6
      vertex 25.7361 20.3989 1.6
      vertex 25.1765 19.7774 1.6
    endloop
  endfacet
  facet normal 0 0 1
    outer loop
      vertex 24.5 16.75 1.6
      vertex 25.1765 19.7774 1.6
      vertex 24.5 19.2859 1.6
    endloop
  endfacet
  facet normal 0 0 1
    outer loop
      vertex 26.1542 21.1231 1.6
      vertex 24.5 16.75 1.6
      vertex 42.1 2.9 1.6
    endloop
  endfacet
  facet normal -0 0 1
    outer loop
      vertex 24.4021 16.132 1.6
      vertex 42.1 2.9 1.6
      vertex 24.5 16.75 1.6
    endloop
  endfacet
  facet normal -0 0 1
    outer loop
      vertex 24.118 15.5744 1.6
      vertex 42.1 2.9 1.6
      vertex 24.4021 16.132 1.6
    endloop
  endfacet
  facet normal -0 0 1
    outer loop
      vertex 23.6756 15.132 1.6
      vertex 42.1 2.9 1.6
      vertex 24.118 15.5744 1.6
    endloop
  endfacet
  facet normal -0 0 1
    outer loop
      vertex 23.118 14.8479 1.6
      vertex 42.1 2.9 1.6
      vertex 23.6756 15.132 1.6
    endloop
  endfacet
  facet normal -0 0 1
    outer loop
      vertex 22.5 14.75 1.6
      vertex 42.1 2.9 1.6
      vertex 23.118 14.8479 1.6
    endloop
  endfacet
  facet normal 0 0 1
    outer loop
      vertex 2.9 2.9 1.6
      vertex 22.5 14.75 1.6
      vertex 21.882 14.8479 1.6
    endloop
  endfacet
  facet normal 0 0 1
    outer loop
      vertex 2.9 2.9 1.6
      vertex 21.882 14.8479 1.6
      vertex 21.3244 15.132 1.6
    endloop
  endfacet
  facet normal 0 0 1
    outer loop
      vertex 19.2639 20.3989 1.6
      vertex 20.5 16.75 1.6
      vertex 19.8235 19.7774 1.6
    endloop
  endfacet
  facet normal 0 0 1
    outer loop
      vertex 18.8458 21.1231 1.6
      vertex 20.5 16.75 1.6
      vertex 19.2639 20.3989 1.6
    endloop
  endfacet
  facet normal 0 0 1
    outer loop
      vertex 20.5 16.75 1.6
      vertex 18.8458 21.1231 1.6
      vertex 20.5979 16.132 1.6
    endloop
  endfacet
  facet normal 0 0 1
    outer loop
      vertex 2.9 32.1 1.6
      vertex 18.5874 21.9184 1.6
      vertex 18.5 22.75 1.6
    endloop
  endfacet
  facet normal 0 0 1
    outer loop
      vertex 2.9 2.9 1.6
      vertex 18.5874 21.9184 1.6
      vertex 2.9 32.1 1.6
    endloop
  endfacet
  facet normal 0 0 1
    outer loop
      vertex 18.5874 21.9184 1.6
      vertex 2.9 2.9 1.6
      vertex 18.8458 21.1231 1.6
    endloop
  endfacet
  facet normal 0 0 1
    outer loop
      vertex 18.8458 21.1231 1.6
      vertex 2.9 2.9 1.6
      vertex 20.5979 16.132 1.6
    endloop
  endfacet
  facet normal 0 0 1
    outer loop
      vertex 20.5979 16.132 1.6
      vertex 2.9 2.9 1.6
      vertex 20.882 15.5744 1.6
    endloop
  endfacet
  facet normal 0 0 1
    outer loop
      vertex 22.5 14.75 1.6
      vertex 2.9 2.9 1.6
      vertex 42.1 2.9 1.6
    endloop
  endfacet
  facet normal 0 0 1
    outer loop
      vertex 20.882 15.5744 1.6
      vertex 2.9 2.9 1.6
      vertex 21.3244 15.132 1.6
    endloop
  endfacet
  facet normal -0 0 1
    outer loop
      vertex 43.1 33.1 1.6
      vertex 45 33 1.6
      vertex 44.9021 33.618 1.6
    endloop
  endfacet
  facet normal 0 0 1
    outer loop
      vertex 45 33 1.6
      vertex 43.1 33.1 1.6
      vertex 45 2 1.6
    endloop
  endfacet
  facet normal 0 0 1
    outer loop
      vertex 43.1 33.1 1.6
      vertex 44.9021 33.618 1.6
      vertex 44.618 34.1756 1.6
    endloop
  endfacet
  facet normal 0 0 1
    outer loop
      vertex 43.1 1.9 1.6
      vertex 45 2 1.6
      vertex 43.1 33.1 1.6
    endloop
  endfacet
  facet normal 0 0 1
    outer loop
      vertex 43.1 33.1 1.6
      vertex 44.618 34.1756 1.6
      vertex 44.1756 34.618 1.6
    endloop
  endfacet
  facet normal 0 0 1
    outer loop
      vertex 45 2 1.6
      vertex 43.1 1.9 1.6
      vertex 44.9021 1.38197 1.6
    endloop
  endfacet
  facet normal 0 0 1
    outer loop
      vertex 43.1 33.1 1.6
      vertex 44.1756 34.618 1.6
      vertex 43.618 34.9021 1.6
    endloop
  endfacet
  facet normal 0 0 1
    outer loop
      vertex 44.9021 1.38197 1.6
      vertex 43.1 1.9 1.6
      vertex 44.618 0.824429 1.6
    endloop
  endfacet
  facet normal 0 0 1
    outer loop
      vertex 44.618 0.824429 1.6
      vertex 43.1 1.9 1.6
      vertex 44.1756 0.381966 1.6
    endloop
  endfacet
  facet normal 0 0 1
    outer loop
      vertex 43 35 1.6
      vertex 43.1 33.1 1.6
      vertex 43.618 34.9021 1.6
    endloop
  endfacet
  facet normal -0 0 1
    outer loop
      vertex 2 35 1.6
      vertex 43.1 33.1 1.6
      vertex 43 35 1.6
    endloop
  endfacet
  facet normal 0 0 1
    outer loop
      vertex 2 35 1.6
      vertex 1.9 33.1 1.6
      vertex 43.1 33.1 1.6
    endloop
  endfacet
  facet normal -0 0 1
    outer loop
      vertex 0.824429 34.618 1.6
      vertex 1.9 33.1 1.6
      vertex 1.38197 34.9021 1.6
    endloop
  endfacet
  facet normal -0 0 1
    outer loop
      vertex 1.38197 34.9021 1.6
      vertex 1.9 33.1 1.6
      vertex 2 35 1.6
    endloop
  endfacet
  facet normal 0 0 1
    outer loop
      vertex 44.1756 0.381966 1.6
      vertex 43.1 1.9 1.6
      vertex 43.618 0.0978861 1.6
    endloop
  endfacet
  facet normal 0 0 1
    outer loop
      vertex 43.1 1.9 1.6
      vertex 43 0 1.6
      vertex 43.618 0.0978861 1.6
    endloop
  endfacet
  facet normal 0 0 1
    outer loop
      vertex 43.1 1.9 1.6
      vertex 2 0 1.6
      vertex 43 0 1.6
    endloop
  endfacet
  facet normal -0 0 1
    outer loop
      vertex 1.9 1.9 1.6
      vertex 2 0 1.6
      vertex 43.1 1.9 1.6
    endloop
  endfacet
  facet normal 0 0 1
    outer loop
      vertex 1.9 1.9 1.6
      vertex 1.38197 0.0978861 1.6
      vertex 2 0 1.6
    endloop
  endfacet
  facet normal 0 0 1
    outer loop
      vertex 1.9 33.1 1.6
      vertex 0 33 1.6
      vertex 1.9 1.9 1.6
    endloop
  endfacet
  facet normal -0 0 1
    outer loop
      vertex 0.381966 34.1756 1.6
      vertex 1.9 33.1 1.6
      vertex 0.824429 34.618 1.6
    endloop
  endfacet
  facet normal -0 0 1
    outer loop
      vertex 0 2 1.6
      vertex 1.9 1.9 1.6
      vertex 0 33 1.6
    endloop
  endfacet
  facet normal -0 0 1
    outer loop
      vertex 0.0978861 33.618 1.6
      vertex 1.9 33.1 1.6
      vertex 0.381966 34.1756 1.6
    endloop
  endfacet
  facet normal 0 -0 1
    outer loop
      vertex 0.0978861 1.38197 1.6
      vertex 1.9 1.9 1.6
      vertex 0 2 1.6
    endloop
  endfacet
  facet normal 0 0 1
    outer loop
      vertex 1.9 33.1 1.6
      vertex 0.0978861 33.618 1.6
      vertex 0 33 1.6
    endloop
  endfacet
  facet normal 0 0 1
    outer loop
      vertex 1.9 1.9 1.6
      vertex 0.824429 0.381966 1.6
      vertex 1.38197 0.0978861 1.6
    endloop
  endfacet
  facet normal 0 0 1
    outer loop
      vertex 1.9 1.9 1.6
      vertex 0.381966 0.824429 1.6
      vertex 0.824429 0.381966 1.6
    endloop
  endfacet
  facet normal 0 0 1
    outer loop
      vertex 1.9 1.9 1.6
      vertex 0.0978861 1.38197 1.6
      vertex 0.381966 0.824429 1.6
    endloop
  endfacet
  facet normal -0.987687 0.156442 0
    outer loop
      vertex 0 33 0
      vertex 0.0978861 33.618 1.6
      vertex 0.0978861 33.618 0
    endloop
  endfacet
  facet normal -0.987687 0.156442 0
    outer loop
      vertex 0.0978861 33.618 1.6
      vertex 0 33 0
      vertex 0 33 1.6
    endloop
  endfacet
  facet normal -0.987688 -0.156434 0
    outer loop
      vertex 0.0978861 1.38197 0
      vertex 0 2 1.6
      vertex 0 2 0
    endloop
  endfacet
  facet normal -0.987688 -0.156434 0
    outer loop
      vertex 0 2 1.6
      vertex 0.0978861 1.38197 0
      vertex 0.0978861 1.38197 1.6
    endloop
  endfacet
  facet normal 0.987684 0.156463 0
    outer loop
      vertex 45 33 1.6
      vertex 44.9021 33.618 0
      vertex 44.9021 33.618 1.6
    endloop
  endfacet
  facet normal 0.987684 0.156463 0
    outer loop
      vertex 44.9021 33.618 0
      vertex 45 33 1.6
      vertex 45 33 0
    endloop
  endfacet
  facet normal -0.891007 -0.453989 0
    outer loop
      vertex 0.381966 0.824429 0
      vertex 0.0978861 1.38197 1.6
      vertex 0.0978861 1.38197 0
    endloop
  endfacet
  facet normal -0.891007 -0.453989 0
    outer loop
      vertex 0.0978861 1.38197 1.6
      vertex 0.381966 0.824429 0
      vertex 0.381966 0.824429 1.6
    endloop
  endfacet
  facet normal 0.707157 -0.707056 0
    outer loop
      vertex 44.1756 0.381966 1.6
      vertex 44.618 0.824429 0
      vertex 44.618 0.824429 1.6
    endloop
  endfacet
  facet normal 0.707157 -0.707056 0
    outer loop
      vertex 44.618 0.824429 0
      vertex 44.1756 0.381966 1.6
      vertex 44.1756 0.381966 0
    endloop
  endfacet
  facet normal 1 -0 0
    outer loop
      vertex 2.9 15.5 7.2
      vertex 2.9 19.5 3.2
      vertex 2.9 19.5 7.2
    endloop
  endfacet
  facet normal 1 0 0
    outer loop
      vertex 2.9 19.5 3.2
      vertex 2.9 15.5 7.2
      vertex 2.9 15.5 3.2
    endloop
  endfacet
  facet normal 0 0 -1
    outer loop
      vertex 2.9 15.5 7.2
      vertex 3.7 19.5 7.2
      vertex 3.7 15.5 7.2
    endloop
  endfacet
  facet normal -0 0 -1
    outer loop
      vertex 3.7 19.5 7.2
      vertex 2.9 15.5 7.2
      vertex 2.9 19.5 7.2
    endloop
  endfacet
  facet normal 0 0 -1
    outer loop
      vertex 1.9 15.5 3.2
      vertex 2.9 19.5 3.2
      vertex 2.9 15.5 3.2
    endloop
  endfacet
  facet normal -0 0 -1
    outer loop
      vertex 2.9 19.5 3.2
      vertex 1.9 15.5 3.2
      vertex 1.9 19.5 3.2
    endloop
  endfacet
  facet normal -1 0 0
    outer loop
      vertex 1.9 15.5 3.2
      vertex 1.9 19.5 8.7
      vertex 1.9 19.5 3.2
    endloop
  endfacet
  facet normal -1 -0 0
    outer loop
      vertex 1.9 19.5 8.7
      vertex 1.9 15.5 3.2
      vertex 1.9 15.5 8.7
    endloop
  endfacet
  facet normal 0 1 0
    outer loop
      vertex 2.9 19.5 7.2
      vertex 3.7 19.5 8.7
      vertex 3.7 19.5 7.2
    endloop
  endfacet
  facet normal 0 1 0
    outer loop
      vertex 3.7 19.5 8.7
      vertex 2.9 19.5 7.2
      vertex 1.9 19.5 8.7
    endloop
  endfacet
  facet normal 0 1 0
    outer loop
      vertex 1.9 19.5 3.2
      vertex 2.9 19.5 7.2
      vertex 2.9 19.5 3.2
    endloop
  endfacet
  facet normal 0 1 0
    outer loop
      vertex 2.9 19.5 7.2
      vertex 1.9 19.5 3.2
      vertex 1.9 19.5 8.7
    endloop
  endfacet
  facet normal 0 -1 0
    outer loop
      vertex 1.9 15.5 8.7
      vertex 2.9 15.5 7.2
      vertex 3.7 15.5 8.7
    endloop
  endfacet
  facet normal 0 -1 0
    outer loop
      vertex 1.9 15.5 3.2
      vertex 2.9 15.5 7.2
      vertex 1.9 15.5 8.7
    endloop
  endfacet
  facet normal 0 -1 -0
    outer loop
      vertex 2.9 15.5 7.2
      vertex 1.9 15.5 3.2
      vertex 2.9 15.5 3.2
    endloop
  endfacet
  facet normal 0 -1 -0
    outer loop
      vertex 3.7 15.5 8.7
      vertex 2.9 15.5 7.2
      vertex 3.7 15.5 7.2
    endloop
  endfacet
  facet normal 1 -0 0
    outer loop
      vertex 3.7 15.5 8.7
      vertex 3.7 19.5 7.2
      vertex 3.7 19.5 8.7
    endloop
  endfacet
  facet normal 1 0 0
    outer loop
      vertex 3.7 19.5 7.2
      vertex 3.7 15.5 8.7
      vertex 3.7 15.5 7.2
    endloop
  endfacet
  facet normal -0 0 1
    outer loop
      vertex 1.9 19.5 8.7
      vertex 3.7 15.5 8.7
      vertex 3.7 19.5 8.7
    endloop
  endfacet
  facet normal 0 0 1
    outer loop
      vertex 3.7 15.5 8.7
      vertex 1.9 19.5 8.7
      vertex 1.9 15.5 8.7
    endloop
  endfacet
  facet normal 1 -0 0
    outer loop
      vertex 43.1 15.5 8.7
      vertex 43.1 19.5 3.2
      vertex 43.1 19.5 8.7
    endloop
  endfacet
  facet normal 1 0 0
    outer loop
      vertex 43.1 19.5 3.2
      vertex 43.1 15.5 8.7
      vertex 43.1 15.5 3.2
    endloop
  endfacet
  facet normal 0 0 -1
    outer loop
      vertex 41.3 15.5 7.2
      vertex 42.1 19.5 7.2
      vertex 42.1 15.5 7.2
    endloop
  endfacet
  facet normal -0 0 -1
    outer loop
      vertex 42.1 19.5 7.2
      vertex 41.3 15.5 7.2
      vertex 41.3 19.5 7.2
    endloop
  endfacet
  facet normal 0 0 -1
    outer loop
      vertex 42.1 15.5 3.2
      vertex 43.1 19.5 3.2
      vertex 43.1 15.5 3.2
    endloop
  endfacet
  facet normal -0 0 -1
    outer loop
      vertex 43.1 19.5 3.2
      vertex 42.1 15.5 3.2
      vertex 42.1 19.5 3.2
    endloop
  endfacet
  facet normal -1 0 0
    outer loop
      vertex 42.1 15.5 3.2
      vertex 42.1 19.5 7.2
      vertex 42.1 19.5 3.2
    endloop
  endfacet
  facet normal -1 -0 0
    outer loop
      vertex 42.1 19.5 7.2
      vertex 42.1 15.5 3.2
      vertex 42.1 15.5 7.2
    endloop
  endfacet
  facet normal 0 1 0
    outer loop
      vertex 43.1 19.5 8.7
      vertex 42.1 19.5 7.2
      vertex 41.3 19.5 8.7
    endloop
  endfacet
  facet normal 0 1 -0
    outer loop
      vertex 43.1 19.5 3.2
      vertex 42.1 19.5 7.2
      vertex 43.1 19.5 8.7
    endloop
  endfacet
  facet normal 0 1 0
    outer loop
      vertex 42.1 19.5 7.2
      vertex 43.1 19.5 3.2
      vertex 42.1 19.5 3.2
    endloop
  endfacet
  facet normal 0 1 0
    outer loop
      vertex 41.3 19.5 8.7
      vertex 42.1 19.5 7.2
      vertex 41.3 19.5 7.2
    endloop
  endfacet
  facet normal 0 -1 0
    outer loop
      vertex 42.1 15.5 7.2
      vertex 41.3 15.5 8.7
      vertex 41.3 15.5 7.2
    endloop
  endfacet
  facet normal 0 -1 0
    outer loop
      vertex 41.3 15.5 8.7
      vertex 42.1 15.5 7.2
      vertex 43.1 15.5 8.7
    endloop
  endfacet
  facet normal 0 -1 0
    outer loop
      vertex 43.1 15.5 3.2
      vertex 42.1 15.5 7.2
      vertex 42.1 15.5 3.2
    endloop
  endfacet
  facet normal 0 -1 0
    outer loop
      vertex 42.1 15.5 7.2
      vertex 43.1 15.5 3.2
      vertex 43.1 15.5 8.7
    endloop
  endfacet
  facet normal -0 0 1
    outer loop
      vertex 41.3 19.5 8.7
      vertex 43.1 15.5 8.7
      vertex 43.1 19.5 8.7
    endloop
  endfacet
  facet normal 0 0 1
    outer loop
      vertex 43.1 15.5 8.7
      vertex 41.3 19.5 8.7
      vertex 41.3 15.5 8.7
    endloop
  endfacet
  facet normal -1 0 0
    outer loop
      vertex 41.3 15.5 7.2
      vertex 41.3 19.5 8.7
      vertex 41.3 19.5 7.2
    endloop
  endfacet
  facet normal -1 -0 0
    outer loop
      vertex 41.3 19.5 8.7
      vertex 41.3 15.5 7.2
      vertex 41.3 15.5 8.7
    endloop
  endfacet
  facet normal 1 -0 0
    outer loop
      vertex 43.1 1.9 3.1
      vertex 43.1 33.1 1.6
      vertex 43.1 33.1 3.1
    endloop
  endfacet
  facet normal 1 0 0
    outer loop
      vertex 43.1 33.1 1.6
      vertex 43.1 1.9 3.1
      vertex 43.1 1.9 1.6
    endloop
  endfacet
  facet normal 0 0 1
    outer loop
      vertex 43.1 33.1 3.1
      vertex 42.1 32.1 3.1
      vertex 43.1 1.9 3.1
    endloop
  endfacet
  facet normal 0 0 1
    outer loop
      vertex 43.1 33.1 3.1
      vertex 2.9 32.1 3.1
      vertex 42.1 32.1 3.1
    endloop
  endfacet
  facet normal 0 0 1
    outer loop
      vertex 2.9 32.1 3.1
      vertex 1.9 33.1 3.1
      vertex 2.9 2.9 3.1
    endloop
  endfacet
  facet normal -0 0 1
    outer loop
      vertex 1.9 33.1 3.1
      vertex 2.9 32.1 3.1
      vertex 43.1 33.1 3.1
    endloop
  endfacet
  facet normal -0 0 1
    outer loop
      vertex 42.1 2.9 3.1
      vertex 43.1 1.9 3.1
      vertex 42.1 32.1 3.1
    endloop
  endfacet
  facet normal -0 0 1
    outer loop
      vertex 2.9 2.9 3.1
      vertex 43.1 1.9 3.1
      vertex 42.1 2.9 3.1
    endloop
  endfacet
  facet normal 0 0 1
    outer loop
      vertex 2.9 2.9 3.1
      vertex 1.9 1.9 3.1
      vertex 43.1 1.9 3.1
    endloop
  endfacet
  facet normal 0 0 1
    outer loop
      vertex 1.9 1.9 3.1
      vertex 2.9 2.9 3.1
      vertex 1.9 33.1 3.1
    endloop
  endfacet
  facet normal -1 0 0
    outer loop
      vertex 1.9 1.9 1.6
      vertex 1.9 33.1 3.1
      vertex 1.9 33.1 1.6
    endloop
  endfacet
  facet normal -1 -0 0
    outer loop
      vertex 1.9 33.1 3.1
      vertex 1.9 1.9 1.6
      vertex 1.9 1.9 3.1
    endloop
  endfacet
  facet normal 0 1 -0
    outer loop
      vertex 43.1 33.1 1.6
      vertex 1.9 33.1 3.1
      vertex 43.1 33.1 3.1
    endloop
  endfacet
  facet normal 0 1 0
    outer loop
      vertex 1.9 33.1 3.1
      vertex 43.1 33.1 1.6
      vertex 1.9 33.1 1.6
    endloop
  endfacet
  facet normal 0 -1 0
    outer loop
      vertex 1.9 1.9 1.6
      vertex 43.1 1.9 3.1
      vertex 1.9 1.9 3.1
    endloop
  endfacet
  facet normal 0 -1 -0
    outer loop
      vertex 43.1 1.9 3.1
      vertex 1.9 1.9 1.6
      vertex 43.1 1.9 1.6
    endloop
  endfacet
  facet normal -1 0 0
    outer loop
      vertex 42.1 2.9 1.6
      vertex 42.1 32.1 3.1
      vertex 42.1 32.1 1.6
    endloop
  endfacet
  facet normal -1 -0 0
    outer loop
      vertex 42.1 32.1 3.1
      vertex 42.1 2.9 1.6
      vertex 42.1 2.9 3.1
    endloop
  endfacet
  facet normal 1 -0 0
    outer loop
      vertex 2.9 2.9 3.1
      vertex 2.9 32.1 1.6
      vertex 2.9 32.1 3.1
    endloop
  endfacet
  facet normal 1 0 0
    outer loop
      vertex 2.9 32.1 1.6
      vertex 2.9 2.9 3.1
      vertex 2.9 2.9 1.6
    endloop
  endfacet
  facet normal 0 -1 0
    outer loop
      vertex 2.9 32.1 1.6
      vertex 42.1 32.1 3.1
      vertex 2.9 32.1 3.1
    endloop
  endfacet
  facet normal 0 -1 -0
    outer loop
      vertex 42.1 32.1 3.1
      vertex 2.9 32.1 1.6
      vertex 42.1 32.1 1.6
    endloop
  endfacet
  facet normal 0 1 -0
    outer loop
      vertex 42.1 2.9 1.6
      vertex 2.9 2.9 3.1
      vertex 42.1 2.9 3.1
    endloop
  endfacet
  facet normal 0 1 0
    outer loop
      vertex 2.9 2.9 3.1
      vertex 42.1 2.9 1.6
      vertex 2.9 2.9 1.6
    endloop
  endfacet
endsolid OpenSCAD_Model
